produkcja: USA , Wielka Brytania
 gatunek: Sci-Fi
 data premiery: 1990-08-12 (Polska) , 1986-07-18 (Świat)
 reżyseria James Cameron
 scenariusz David Giler , Walter Hill
 zdjęcia Adrian Biddle
 muzyka James Horner

 Po 57 latach dryfowania w przestrzeni kosmicznej oficer Ellen Ripley zostaje odnaleziona. Na stacji kosmicznej dowiaduje się, że "firma" wysłała dużą grupę kolonistów na planetę, z której załoga Nostromo wniosła na pokład obcego. Przerażona próbuje interweniować, jednak bez skutku. Nikt jej nie wierzy, zaś jej przeżycia są uznawane za wymysły. Kiedy wydaje się, że wszystko wraca do normy z bazy osadników przestają nadchodzić wiadomości. Oficer Ellen Ripley wyrusza wraz z oddziałem komandosów i pracownikiem "firmy" na planetę. Jednak horror, który tam zastaną, nie śnił im się w najgorszych koszmarach...

 General
 Unique ID : 224830028046763122846737548262170210534 (0xA924B0372223E987BBA313776B14B0E6)
 Complete name : F:FilmyFilmy 3DSzablonWstawkaALIENS.1986.TC(Leon 345)ALIENS.1986.Theatrical.Cut(Leon 345).mkv
 Format : Matroska
 Format version : Version 2
 File size : 14.1 GiB
 Duration : 2h 17mn
 Overall bit rate mode : Variable
 Overall bit rate : 14.7 Mbps
 Encoded date : UTC 2013-04-04 15:47:12
 Writing application : mkvmerge v5.7.0 ('The Whirlwind') built on Jul 8 2012 20:08:51
 Writing library : libebml v1.2.3 + libmatroska v1.3.0

 Video
 ID : 1
 Format : AVC
 Format/Info : Advanced Video Codec
 Format profile : High@L4.1
 Format settings, CABAC : Yes
 Format settings, ReFrames : 2 frames
 Format settings, GOP : M=4, N=24
 Codec ID : V_MPEG4/ISO/AVC
 Duration : 2h 17mn
 Bit rate mode : Variable
 Nominal bit rate : 10.5 Mbps
 Maximum bit rate : 35.0 Mbps
 Width : 1 920 pixels
 Height : 1 080 pixels
 Display aspect ratio : 16:9 (1.85:1)
 Frame rate mode : Constant
 Frame rate : 23.976 fps
 Color space : YUV
 Chroma subsampling : 4:2:0
 Bit depth : 8 bits
 Scan type : Progressive
 Bits/(Pixel*Frame) : 0.212
 Title : Rip by Leon 345
 Writing library : x264 core 130 r2273 b3065e6
 Default : Yes
 Forced : No

 Audio #1
 ID : 2
 Format : AC-3
 Format/Info : Audio Coding 3
 Mode extension : CM (complete main)
 Format settings, Endianness : Big
 Codec ID : A_AC3
 Duration : 2h 17mn
 Bit rate mode : Constant
 Bit rate : 192 Kbps
 Channel(s) : 2 channels
 Channel positions : Front: L R
 Sampling rate : 48.0 KHz
 Bit depth : 16 bits
 Compression mode : Lossy
 Stream size : 188 MiB (1%)
 Title : AC3 2.0 Lektor PL z DVD
 Language : Polish
 Default : Yes
 Forced : Yes

 Audio #2
 ID : 3
 Format : AC-3
 Format/Info : Audio Coding 3
 Mode extension : CM (complete main)
 Format settings, Endianness : Big
 Codec ID : A_AC3
 Duration : 2h 17mn
 Bit rate mode : Constant
 Bit rate : 640 Kbps
 Channel(s) : 6 channels
 Channel positions : Front: L C R, Side: L R, LFE
 Sampling rate : 48.0 KHz
 Bit depth : 16 bits
 Compression mode : Lossy
 Stream size : 628 MiB (4%)
 Title : AC3 5.1 Orginal
 Language : English
 Default : No
 Forced : No

 Audio #3
 ID : 4
 Format : DTS
 Format/Info : Digital Theater Systems
 Format profile : MA / Core
 Mode : 16
 Format settings, Endianness : Big
 Codec ID : A_DTS
 Duration : 2h 17mn
 Bit rate mode : Variable
 Bit rate : 4055 / 1 509 Kbps
 Channel(s) : 6 channels
 Channel positions : Front: L C R, Side: L R, LFE
 Sampling rate : 48.0 KHz
 Bit depth : 24 bits
 Compression mode : Lossless / Lossy
 Title : DTS-HD MA 5.1 Orginal
 Language : English
 Default : No
 Forced : No

 Text #1
 ID : 5
 Format : PGS
 Muxing mode : zlib
 Codec ID : S_HDMV/PGS
 Codec ID/Info : The same subtitle format used on BDs/HD-DVDs
 Language : English
 Default : No
 Forced : No

 Text #2
 ID : 6
 Format : UTF-8
 Codec ID : S_TEXT/UTF8
 Codec ID/Info : UTF-8 Plain Text
 Language : Polish
 Default : No
 Forced : No

 Source [thx]:
 A/V- Alien Anthology [2-in-1: Theatrical ; Director's Cut/Special Edition] {6-Disc Edition} (1979/1986/1992/1997) Blu-ray 1080p AVC DTS 5.1"
 Lektor PL DD 2.0 z wydania DVD
 ===========================================================